<svg xmlns="http://www.w3.org/2000/svg" viewBox="0 0 24 24" width="24" height="24">
  <defs>
    <linearGradient id="logo-grad" x1="0%" y1="0%" x2="100%" y2="100%">
      <stop offset="0%" stop-color="#ff007a" />
      <stop offset="50%" stop-color="#7928ca" />
      <stop offset="100%" stop-color="#00dfd8" />
    </linearGradient>
  </defs>
  <!-- Central paw pad -->
  <path d="M12 14c-2.3 0-4.2 1.6-4.5 3.8-.2 1.5.8 2.8 2.3 3.1.7.1 1.4.1 2.2.1s1.5 0 2.2-.1c1.5-.3 2.5-1.6 2.3-3.1-.3-2.2-2.2-3.8-4.5-3.8z" fill="url(#logo-grad)"/>
  <!-- Outer toes -->
  <ellipse cx="6" cy="13.5" rx="1.6" ry="2.2" transform="rotate(-20 6 13.5)" fill="url(#logo-grad)"/>
  <ellipse cx="9.5" cy="9.5" rx="1.8" ry="2.5" transform="rotate(-8 9.5 9.5)" fill="url(#logo-grad)"/>
  <ellipse cx="14.5" cy="9.5" rx="1.8" ry="2.5" transform="rotate(8 14.5 9.5)" fill="url(#logo-grad)"/>
  <ellipse cx="18" cy="13.5" rx="1.6" ry="2.2" transform="rotate(20 18 13.5)" fill="url(#logo-grad)"/>
</svg>
